<?xml version="1.0" encoding="us-ascii" standalone="no"?><svg xmlns="http://www.w3.org/2000/svg" xmlns:xlink="http://www.w3.org/1999/xlink" contentStyleType="text/css" height="989px" preserveAspectRatio="none" style="width:728px;height:989px;background:#FFFFFF;" version="1.1" viewBox="0 0 728 989" width="728px" zoomAndPan="magnify"><defs/><g><!--class User--><g id="elem_User"><rect codeLine="1" fill="#F1F1F1" height="124.2717" id="User" rx="2.5" ry="2.5" style="stroke:#181818;stroke-width:0.5;" width="168" x="109.5" y="7"/><ellipse cx="173.75" cy="23" fill="#ADD1B2" rx="11" ry="11" style="stroke:#181818;stroke-width:1.0;"/><path d="M170.1094,29.5 L170.1094,17.3594 L177.7656,17.3594 L177.7656,19.4844 L172.4844,19.4844 L172.4844,22.1406 L177.5,22.1406 L177.5,24.2656 L172.4844,24.2656 L172.4844,27.375 L177.7656,27.375 L177.7656,29.5 L170.1094,29.5 Z " fill="#000000"/><text fill="#000000" font-family="sans-serif" font-size="14" lengthAdjust="spacing" textLength="31" x="194.25" y="28.432">User</text><line style="stroke:#181818;stroke-width:0.5;" x1="110.5" x2="276.5" y1="39" y2="39"/><ellipse cx="120.5" cy="54.034" fill="#000000" rx="3" ry="3" style="stroke:#000000;stroke-width:1.0;"/><text fill="#000000" font-family="sans-serif" font-size="14" font-weight="bold" lengthAdjust="spacing" textLength="142" x="129.5" y="57.9659">user_id : string &#171;PK&#187;</text><text fill="#000000" font-family="sans-serif" font-size="14" lengthAdjust="spacing" textLength="120" x="129.5" y="77.0339">username : string</text><text fill="#000000" font-family="sans-serif" font-size="14" lengthAdjust="spacing" textLength="117" x="129.5" y="96.1018">password : string</text><text fill="#000000" font-family="sans-serif" font-size="14" lengthAdjust="spacing" textLength="89" x="129.5" y="115.1697">email : string</text><line style="stroke:#181818;stroke-width:0.5;" x1="110.5" x2="276.5" y1="123.2717" y2="123.2717"/></g><!--class Role--><g id="elem_Role"><rect codeLine="8" fill="#F1F1F1" height="105.2038" id="Role" rx="2.5" ry="2.5" style="stroke:#181818;stroke-width:0.5;" width="167" x="7" y="210.34"/><ellipse cx="71.75" cy="226.34" fill="#ADD1B2" rx="11" ry="11" style="stroke:#181818;stroke-width:1.0;"/><path d="M68.1094,232.84 L68.1094,220.6994 L75.7656,220.6994 L75.7656,222.8244 L70.4844,222.8244 L70.4844,225.4806 L75.5,225.4806 L75.5,227.6056 L70.4844,227.6056 L70.4844,230.715 L75.7656,230.715 L75.7656,232.84 L68.1094,232.84 Z " fill="#000000"/><text fill="#000000" font-family="sans-serif" font-size="14" lengthAdjust="spacing" textLength="29" x="92.25" y="231.772">Role</text><line style="stroke:#181818;stroke-width:0.5;" x1="8" x2="173" y1="242.34" y2="242.34"/><ellipse cx="18" cy="257.374" fill="#000000" rx="3" ry="3" style="stroke:#000000;stroke-width:1.0;"/><text fill="#000000" font-family="sans-serif" font-size="14" lengthAdjust="spacing" textLength="141" x="27" y="261.3059">role_id : integer &#171;PK&#187;</text><text fill="#000000" font-family="sans-serif" font-size="14" font-weight="bold" lengthAdjust="spacing" textLength="102" x="27" y="280.3739">user_id : string</text><text fill="#000000" font-family="sans-serif" font-size="14" lengthAdjust="spacing" textLength="122" x="27" y="299.4418">role_name : string</text><line style="stroke:#181818;stroke-width:0.5;" x1="8" x2="173" y1="307.5438" y2="307.5438"/></g><!--class Revenue--><g id="elem_Revenue"><rect codeLine="14" fill="#F1F1F1" height="143.3396" id="Revenue" rx="2.5" ry="2.5" style="stroke:#181818;stroke-width:0.5;" width="194" x="475.5" y="191.28"/><ellipse cx="539.25" cy="207.28" fill="#ADD1B2" rx="11" ry="11" style="stroke:#181818;stroke-width:1.0;"/><path d="M535.6094,213.78 L535.6094,201.6394 L543.2656,201.6394 L543.2656,203.7644 L537.9844,203.7644 L537.9844,206.4206 L543,206.4206 L543,208.5456 L537.9844,208.5456 L537.9844,211.655 L543.2656,211.655 L543.2656,213.78 L535.6094,213.78 Z " fill="#000000"/><text fill="#000000" font-family="sans-serif" font-size="14" lengthAdjust="spacing" textLength="58" x="559.75" y="212.712">Revenue</text><line style="stroke:#181818;stroke-width:0.5;" x1="476.5" x2="668.5" y1="223.28" y2="223.28"/><ellipse cx="486.5" cy="238.314" fill="#000000" rx="3" ry="3" style="stroke:#000000;stroke-width:1.0;"/><text fill="#000000" font-family="sans-serif" font-size="14" font-weight="bold" lengthAdjust="spacing" textLength="168" x="495.5" y="242.2459">revenue_id : string &#171;PK&#187;</text><text fill="#000000" font-family="sans-serif" font-size="14" lengthAdjust="spacing" textLength="126" x="495.5" y="261.3139">item_name : string</text><text fill="#000000" font-family="sans-serif" font-size="14" lengthAdjust="spacing" textLength="138" x="495.5" y="280.3818">base_price : number</text><text fill="#000000" font-family="sans-serif" font-size="14" lengthAdjust="spacing" textLength="96" x="495.5" y="299.4497">total : number</text><text fill="#000000" font-family="sans-serif" font-size="14" lengthAdjust="spacing" textLength="138" x="495.5" y="318.5176">date_acquired : date</text><line style="stroke:#181818;stroke-width:0.5;" x1="476.5" x2="668.5" y1="326.6196" y2="326.6196"/></g><!--class RevenueCategory--><g id="elem_RevenueCategory"><rect codeLine="22" fill="#F1F1F1" height="86.1358" id="RevenueCategory" rx="2.5" ry="2.5" style="stroke:#181818;stroke-width:0.5;" width="261" x="442" y="413.68"/><ellipse cx="509.25" cy="429.68" fill="#ADD1B2" rx="11" ry="11" style="stroke:#181818;stroke-width:1.0;"/><path d="M505.6094,436.18 L505.6094,424.0394 L513.2656,424.0394 L513.2656,426.1644 L507.9844,426.1644 L507.9844,428.8206 L513,428.8206 L513,430.9456 L507.9844,430.9456 L507.9844,434.055 L513.2656,434.055 L513.2656,436.18 L505.6094,436.18 Z " fill="#000000"/><text fill="#000000" font-family="sans-serif" font-size="14" lengthAdjust="spacing" textLength="118" x="529.75" y="435.112">RevenueCategory</text><line style="stroke:#181818;stroke-width:0.5;" x1="443" x2="702" y1="445.68" y2="445.68"/><ellipse cx="453" cy="460.714" fill="#000000" rx="3" ry="3" style="stroke:#000000;stroke-width:1.0;"/><text fill="#000000" font-family="sans-serif" font-size="14" font-weight="bold" lengthAdjust="spacing" textLength="235" x="462" y="464.6459">revenue_category_id : string &#171;PK&#187;</text><text fill="#000000" font-family="sans-serif" font-size="14" font-weight="bold" lengthAdjust="spacing" textLength="167" x="462" y="483.7139">revenue_id : string &#171;FK&#187;</text><line style="stroke:#181818;stroke-width:0.5;" x1="443" x2="702" y1="491.8158" y2="491.8158"/></g><!--class Movie--><g id="elem_Movie"><rect codeLine="27" fill="#F1F1F1" height="219.6113" id="Movie" rx="2.5" ry="2.5" style="stroke:#181818;stroke-width:0.5;" width="260" x="166.5" y="578.89"/><ellipse cx="272.25" cy="594.89" fill="#ADD1B2" rx="11" ry="11" style="stroke:#181818;stroke-width:1.0;"/><path d="M268.6094,601.39 L268.6094,589.2494 L276.2656,589.2494 L276.2656,591.3744 L270.9844,591.3744 L270.9844,594.0306 L276,594.0306 L276,596.1556 L270.9844,596.1556 L270.9844,599.265 L276.2656,599.265 L276.2656,601.39 L268.6094,601.39 Z " fill="#000000"/><text fill="#000000" font-family="sans-serif" font-size="14" lengthAdjust="spacing" textLength="40" x="292.75" y="600.322">Movie</text><line style="stroke:#181818;stroke-width:0.5;" x1="167.5" x2="425.5" y1="610.89" y2="610.89"/><ellipse cx="177.5" cy="625.924" fill="#000000" rx="3" ry="3" style="stroke:#000000;stroke-width:1.0;"/><text fill="#000000" font-family="sans-serif" font-size="14" font-weight="bold" lengthAdjust="spacing" textLength="155" x="186.5" y="629.8559">movie_id : string &#171;PK&#187;</text><text fill="#000000" font-family="sans-serif" font-size="14" font-weight="bold" lengthAdjust="spacing" textLength="234" x="186.5" y="648.9239">revenue_category_id : string &#171;FK&#187;</text><text fill="#000000" font-family="sans-serif" font-size="14" lengthAdjust="spacing" textLength="90" x="186.5" y="667.9918">name : string</text><text fill="#000000" font-family="sans-serif" font-size="14" lengthAdjust="spacing" textLength="136" x="186.5" y="687.0597">publisher_id : string</text><text fill="#000000" font-family="sans-serif" font-size="14" lengthAdjust="spacing" textLength="107" x="186.5" y="706.1276">showtime : date</text><text fill="#000000" font-family="sans-serif" font-size="14" lengthAdjust="spacing" textLength="140" x="186.5" y="725.1955">is_showing : boolean</text><text fill="#000000" font-family="sans-serif" font-size="14" lengthAdjust="spacing" textLength="138" x="186.5" y="744.2634">base_price : number</text><text fill="#000000" font-family="sans-serif" font-size="14" lengthAdjust="spacing" textLength="138" x="186.5" y="763.3314">date_acquired : date</text><text fill="#000000" font-family="sans-serif" font-size="14" lengthAdjust="spacing" textLength="124" x="186.5" y="782.3993">duration : number</text><line style="stroke:#181818;stroke-width:0.5;" x1="167.5" x2="425.5" y1="790.5013" y2="790.5013"/></g><!--class Publisher--><g id="elem_Publisher"><rect codeLine="39" fill="#F1F1F1" height="124.2717" id="Publisher" rx="2.5" ry="2.5" style="stroke:#181818;stroke-width:0.5;" width="203" x="82" y="858.5"/><ellipse cx="147.25" cy="874.5" fill="#ADD1B2" rx="11" ry="11" style="stroke:#181818;stroke-width:1.0;"/><path d="M143.6094,881 L143.6094,868.8594 L151.2656,868.8594 L151.2656,870.9844 L145.9844,870.9844 L145.9844,873.6406 L151,873.6406 L151,875.7656 L145.9844,875.7656 L145.9844,878.875 L151.2656,878.875 L151.2656,881 L143.6094,881 Z " fill="#000000"/><text fill="#000000" font-family="sans-serif" font-size="14" lengthAdjust="spacing" textLength="64" x="167.75" y="879.932">Publisher</text><line style="stroke:#181818;stroke-width:0.5;" x1="83" x2="284" y1="890.5" y2="890.5"/><ellipse cx="93" cy="905.534" fill="#000000" rx="3" ry="3" style="stroke:#000000;stroke-width:1.0;"/><text fill="#000000" font-family="sans-serif" font-size="14" font-weight="bold" lengthAdjust="spacing" textLength="177" x="102" y="909.4659">publisher_id : string &#171;PK&#187;</text><text fill="#000000" font-family="sans-serif" font-size="14" font-weight="bold" lengthAdjust="spacing" textLength="154" x="102" y="928.5339">movie_id : string &#171;FK&#187;</text><text fill="#000000" font-family="sans-serif" font-size="14" lengthAdjust="spacing" textLength="86" x="102" y="947.6018">name: string</text><text fill="#000000" font-family="sans-serif" font-size="14" lengthAdjust="spacing" textLength="91" x="102" y="966.6697">year: number</text><line style="stroke:#181818;stroke-width:0.5;" x1="83" x2="284" y1="974.7717" y2="974.7717"/></g><!--class Artist--><g id="elem_Artist"><rect codeLine="46" fill="#F1F1F1" height="124.2717" id="Artist" rx="2.5" ry="2.5" style="stroke:#181818;stroke-width:0.5;" width="180" x="319.5" y="858.5"/><ellipse cx="387.25" cy="874.5" fill="#ADD1B2" rx="11" ry="11" style="stroke:#181818;stroke-width:1.0;"/><path d="M383.6094,881 L383.6094,868.8594 L391.2656,868.8594 L391.2656,870.9844 L385.9844,870.9844 L385.9844,873.6406 L391,873.6406 L391,875.7656 L385.9844,875.7656 L385.9844,878.875 L391.2656,878.875 L391.2656,881 L383.6094,881 Z " fill="#000000"/><text fill="#000000" font-family="sans-serif" font-size="14" lengthAdjust="spacing" textLength="36" x="407.75" y="879.932">Artist</text><line style="stroke:#181818;stroke-width:0.5;" x1="320.5" x2="498.5" y1="890.5" y2="890.5"/><ellipse cx="330.5" cy="905.534" fill="#000000" rx="3" ry="3" style="stroke:#000000;stroke-width:1.0;"/><text fill="#000000" font-family="sans-serif" font-size="14" font-weight="bold" lengthAdjust="spacing" textLength="149" x="339.5" y="909.4659">artist_id : string &#171;PK&#187;</text><text fill="#000000" font-family="sans-serif" font-size="14" font-weight="bold" lengthAdjust="spacing" textLength="154" x="339.5" y="928.5339">movie_id : string &#171;FK&#187;</text><text fill="#000000" font-family="sans-serif" font-size="14" lengthAdjust="spacing" textLength="90" x="339.5" y="947.6018">name : string</text><text fill="#000000" font-family="sans-serif" font-size="14" lengthAdjust="spacing" textLength="101" x="339.5" y="966.6697">gender : string</text><line style="stroke:#181818;stroke-width:0.5;" x1="320.5" x2="498.5" y1="974.7717" y2="974.7717"/></g><!--class Beverage--><g id="elem_Beverage"><rect codeLine="53" fill="#F1F1F1" height="124.2717" id="Beverage" rx="2.5" ry="2.5" style="stroke:#181818;stroke-width:0.5;" width="260" x="461.5" y="626.56"/><ellipse cx="555.75" cy="642.56" fill="#ADD1B2" rx="11" ry="11" style="stroke:#181818;stroke-width:1.0;"/><path d="M552.1094,649.06 L552.1094,636.9194 L559.7656,636.9194 L559.7656,639.0444 L554.4844,639.0444 L554.4844,641.7006 L559.5,641.7006 L559.5,643.8256 L554.4844,643.8256 L554.4844,646.935 L559.7656,646.935 L559.7656,649.06 L552.1094,649.06 Z " fill="#000000"/><text fill="#000000" font-family="sans-serif" font-size="14" lengthAdjust="spacing" textLength="63" x="576.25" y="647.992">Beverage</text><line style="stroke:#181818;stroke-width:0.5;" x1="462.5" x2="720.5" y1="658.56" y2="658.56"/><ellipse cx="472.5" cy="673.594" fill="#000000" rx="3" ry="3" style="stroke:#000000;stroke-width:1.0;"/><text fill="#000000" font-family="sans-serif" font-size="14" font-weight="bold" lengthAdjust="spacing" textLength="176" x="481.5" y="677.5259">beverage_id : string &#171;PK&#187;</text><text fill="#000000" font-family="sans-serif" font-size="14" font-weight="bold" lengthAdjust="spacing" textLength="234" x="481.5" y="696.5939">revenue_category_id : string &#171;FK&#187;</text><text fill="#000000" font-family="sans-serif" font-size="14" lengthAdjust="spacing" textLength="138" x="481.5" y="715.6618">base_price : number</text><text fill="#000000" font-family="sans-serif" font-size="14" lengthAdjust="spacing" textLength="138" x="481.5" y="734.7297">date_acquired : date</text><line style="stroke:#181818;stroke-width:0.5;" x1="462.5" x2="720.5" y1="742.8317" y2="742.8317"/></g><!--class Room--><g id="elem_Room"><rect codeLine="60" fill="#F1F1F1" height="124.2717" id="Room" rx="2.5" ry="2.5" style="stroke:#181818;stroke-width:0.5;" width="186" x="203.5" y="394.62"/><ellipse cx="273.25" cy="410.62" fill="#ADD1B2" rx="11" ry="11" style="stroke:#181818;stroke-width:1.0;"/><path d="M269.6094,417.12 L269.6094,404.9794 L277.2656,404.9794 L277.2656,407.1044 L271.9844,407.1044 L271.9844,409.7606 L277,409.7606 L277,411.8856 L271.9844,411.8856 L271.9844,414.995 L277.2656,414.995 L277.2656,417.12 L269.6094,417.12 Z " fill="#000000"/><text fill="#000000" font-family="sans-serif" font-size="14" lengthAdjust="spacing" textLength="38" x="293.75" y="416.052">Room</text><line style="stroke:#181818;stroke-width:0.5;" x1="204.5" x2="388.5" y1="426.62" y2="426.62"/><ellipse cx="214.5" cy="441.654" fill="#000000" rx="3" ry="3" style="stroke:#000000;stroke-width:1.0;"/><text fill="#000000" font-family="sans-serif" font-size="14" font-weight="bold" lengthAdjust="spacing" textLength="150" x="223.5" y="445.5859">room_id : string &#171;PK&#187;</text><text fill="#000000" font-family="sans-serif" font-size="14" font-weight="bold" lengthAdjust="spacing" textLength="154" x="223.5" y="464.6539">movie_id : string &#171;FK&#187;</text><text fill="#000000" font-family="sans-serif" font-size="14" lengthAdjust="spacing" textLength="130" x="223.5" y="483.7218">total_seat : number</text><text fill="#000000" font-family="sans-serif" font-size="14" lengthAdjust="spacing" textLength="160" x="223.5" y="502.7897">seat_available : number</text><line style="stroke:#181818;stroke-width:0.5;" x1="204.5" x2="388.5" y1="510.8917" y2="510.8917"/></g><!--class Seat--><g id="elem_Seat"><rect codeLine="67" fill="#F1F1F1" height="143.3396" id="Seat" rx="2.5" ry="2.5" style="stroke:#181818;stroke-width:0.5;" width="175" x="209" y="191.28"/><ellipse cx="277.75" cy="207.28" fill="#ADD1B2" rx="11" ry="11" style="stroke:#181818;stroke-width:1.0;"/><path d="M274.1094,213.78 L274.1094,201.6394 L281.7656,201.6394 L281.7656,203.7644 L276.4844,203.7644 L276.4844,206.4206 L281.5,206.4206 L281.5,208.5456 L276.4844,208.5456 L276.4844,211.655 L281.7656,211.655 L281.7656,213.78 L274.1094,213.78 Z " fill="#000000"/><text fill="#000000" font-family="sans-serif" font-size="14" lengthAdjust="spacing" textLength="29" x="298.25" y="212.712">Seat</text><line style="stroke:#181818;stroke-width:0.5;" x1="210" x2="383" y1="223.28" y2="223.28"/><ellipse cx="220" cy="238.314" fill="#000000" rx="3" ry="3" style="stroke:#000000;stroke-width:1.0;"/><text fill="#000000" font-family="sans-serif" font-size="14" font-weight="bold" lengthAdjust="spacing" textLength="141" x="229" y="242.2459">seat_id : string &#171;PK&#187;</text><text fill="#000000" font-family="sans-serif" font-size="14" font-weight="bold" lengthAdjust="spacing" textLength="149" x="229" y="261.3139">room_id : string &#171;FK&#187;</text><text fill="#000000" font-family="sans-serif" font-size="14" font-weight="bold" lengthAdjust="spacing" textLength="102" x="229" y="280.3818">user_id : string</text><text fill="#000000" font-family="sans-serif" font-size="14" lengthAdjust="spacing" textLength="132" x="229" y="299.4497">is_booked : boolean</text><text fill="#000000" font-family="sans-serif" font-size="14" lengthAdjust="spacing" textLength="127" x="229" y="318.5176">booked_date : date</text><line style="stroke:#181818;stroke-width:0.5;" x1="210" x2="383" y1="326.6196" y2="326.6196"/></g><!--link User to Role--><g id="link_User_Role"><path codeLine="76" d="M156.7033,138.6671 C143.1033,163.9771 135.1046,178.8818 122.1046,203.0918 " fill="none" id="User-Role" style="stroke:#181818;stroke-width:1.0;stroke-dasharray:7.0,7.0;"/><line style="stroke:#181818;stroke-width:1.0;" x1="155.0731" x2="162.1202" y1="133.2502" y2="137.0369"/><line style="stroke:#181818;stroke-width:1.0;" x1="153.6531" x2="160.7002" y1="135.8929" y2="139.6795"/><line style="stroke:#181818;stroke-width:1.0;" x1="156.7033" x2="160.49" y1="138.6671" y2="131.62"/><line style="stroke:#181818;stroke-width:1.0;" x1="122.1046" x2="123.6061" y1="203.0918" y2="212.9785"/><line style="stroke:#181818;stroke-width:1.0;" x1="122.1046" x2="113.0339" y1="203.0918" y2="207.3015"/><line style="stroke:#181818;stroke-width:1.0;" x1="122.1046" x2="118.32" y1="203.0918" y2="210.14"/><line style="stroke:#181818;stroke-width:1.0;" x1="126.5749" x2="119.5267" y1="203.2221" y2="199.4375"/></g><!--link Revenue to RevenueCategory--><g id="link_Revenue_RevenueCategory"><path codeLine="77" d="M572.5,343.09 C572.5,369.43 572.5,382.43 572.5,405.41 " fill="none" id="Revenue-RevenueCategory" style="stroke:#181818;stroke-width:1.0;stroke-dasharray:7.0,7.0;"/><line style="stroke:#181818;stroke-width:1.0;" x1="568.5" x2="576.5" y1="339.09" y2="339.09"/><line style="stroke:#181818;stroke-width:1.0;" x1="568.5" x2="576.5" y1="342.09" y2="342.09"/><line style="stroke:#181818;stroke-width:1.0;" x1="572.5" x2="572.5" y1="343.09" y2="335.09"/><line style="stroke:#181818;stroke-width:1.0;" x1="572.5" x2="578.5" y1="405.41" y2="413.41"/><line style="stroke:#181818;stroke-width:1.0;" x1="572.5" x2="566.5" y1="405.41" y2="413.41"/><line style="stroke:#181818;stroke-width:1.0;" x1="572.5" x2="572.5" y1="405.41" y2="413.41"/><line style="stroke:#181818;stroke-width:1.0;" x1="576.5" x2="568.5" y1="403.41" y2="403.41"/></g><!--link RevenueCategory to Movie--><g id="link_RevenueCategory_Movie"><path codeLine="78" d="M515.4137,505.3108 C488.6237,527.6308 466.7276,545.8807 433.1276,573.8607 " fill="none" id="RevenueCategory-Movie" style="stroke:#181818;stroke-width:1.0;stroke-dasharray:7.0,7.0;"/><line style="stroke:#181818;stroke-width:1.0;" x1="515.9264" x2="521.0472" y1="499.6772" y2="505.8236"/><line style="stroke:#181818;stroke-width:1.0;" x1="513.6216" x2="518.7424" y1="501.5975" y2="507.7439"/><line style="stroke:#181818;stroke-width:1.0;" x1="515.4137" x2="521.56" y1="505.3108" y2="500.19"/><line style="stroke:#181818;stroke-width:1.0;" x1="433.1276" x2="430.8195" y1="573.8607" y2="583.5907"/><line style="stroke:#181818;stroke-width:1.0;" x1="433.1276" x2="423.1405" y1="573.8607" y2="574.3693"/><line style="stroke:#181818;stroke-width:1.0;" x1="433.1276" x2="426.98" y1="573.8607" y2="578.98"/><line style="stroke:#181818;stroke-width:1.0;" x1="437.2241" x2="432.1048" y1="575.6546" y2="569.5071"/></g><!--link RevenueCategory to Beverage--><g id="link_RevenueCategory_Beverage"><path codeLine="79" d="M576.6671,508.163 C579.5871,543.593 582.4799,578.5973 585.7799,618.4573 " fill="none" id="RevenueCategory-Beverage" style="stroke:#181818;stroke-width:1.0;stroke-dasharray:7.0,7.0;"/><line style="stroke:#181818;stroke-width:1.0;" x1="572.3521" x2="580.325" y1="504.505" y2="503.8479"/><line style="stroke:#181818;stroke-width:1.0;" x1="572.5985" x2="580.5714" y1="507.4949" y2="506.8378"/><line style="stroke:#181818;stroke-width:1.0;" x1="576.6671" x2="576.01" y1="508.163" y2="500.19"/><line style="stroke:#181818;stroke-width:1.0;" x1="585.7799" x2="592.4195" y1="618.4573" y2="625.935"/><line style="stroke:#181818;stroke-width:1.0;" x1="585.7799" x2="580.4605" y1="618.4573" y2="626.925"/><line style="stroke:#181818;stroke-width:1.0;" x1="585.7799" x2="586.44" y1="618.4573" y2="626.43"/><line style="stroke:#181818;stroke-width:1.0;" x1="589.6013" x2="581.6286" y1="616.1341" y2="616.7941"/></g><!--link Room to Movie--><g id="link_Room_Movie"><path codeLine="80" d="M296.5,527.37 C296.5,545.6 296.5,550.12 296.5,570.41 " fill="none" id="Room-Movie" style="stroke:#181818;stroke-width:1.0;stroke-dasharray:7.0,7.0;"/><line style="stroke:#181818;stroke-width:1.0;" x1="292.5" x2="300.5" y1="523.37" y2="523.37"/><line style="stroke:#181818;stroke-width:1.0;" x1="292.5" x2="300.5" y1="526.37" y2="526.37"/><line style="stroke:#181818;stroke-width:1.0;" x1="296.5" x2="296.5" y1="527.37" y2="519.37"/><line style="stroke:#181818;stroke-width:1.0;" x1="296.5" x2="302.5" y1="570.41" y2="578.41"/><line style="stroke:#181818;stroke-width:1.0;" x1="296.5" x2="290.5" y1="570.41" y2="578.41"/><line style="stroke:#181818;stroke-width:1.0;" x1="296.5" x2="296.5" y1="570.41" y2="578.41"/><line style="stroke:#181818;stroke-width:1.0;" x1="300.5" x2="292.5" y1="568.41" y2="568.41"/></g><!--link User to Seat--><g id="link_User_Seat"><path codeLine="81" d="M233.6106,144.8329 C243.7406,163.6829 244.0635,164.3129 254.5035,183.7429 " fill="none" id="User-Seat" style="stroke:#181818;stroke-width:1.0;stroke-dasharray:7.0,7.0;"/><line style="stroke:#181818;stroke-width:1.0;" x1="231.7171" x2="226.51" y1="141.3095" y2="131.62"/><ellipse cx="231.7171" cy="141.3095" fill="none" rx="4" ry="4" style="stroke:#181818;stroke-width:1.0;"/><line style="stroke:#181818;stroke-width:1.0;" x1="224.8801" x2="231.9269" y1="137.0369" y2="133.2499"/><line style="stroke:#181818;stroke-width:1.0;" x1="254.5035" x2="263.5754" y1="183.7429" y2="187.9501"/><line style="stroke:#181818;stroke-width:1.0;" x1="254.5035" x2="253.0046" y1="183.7429" y2="193.6299"/><line style="stroke:#181818;stroke-width:1.0;" x1="254.5035" x2="258.29" y1="183.7429" y2="190.79"/><line style="stroke:#181818;stroke-width:1.0;" x1="257.0804" x2="250.0333" y1="180.0878" y2="183.8743"/></g><!--link Seat to Room--><g id="link_Seat_Room"><path codeLine="82" d="M296.5,343.09 C296.5,362.5 296.5,367.35 296.5,386.18 " fill="none" id="Seat-Room" style="stroke:#181818;stroke-width:1.0;stroke-dasharray:7.0,7.0;"/><line style="stroke:#181818;stroke-width:1.0;" x1="292.5" x2="300.5" y1="339.09" y2="339.09"/><line style="stroke:#181818;stroke-width:1.0;" x1="292.5" x2="300.5" y1="342.09" y2="342.09"/><line style="stroke:#181818;stroke-width:1.0;" x1="296.5" x2="296.5" y1="343.09" y2="335.09"/><line style="stroke:#181818;stroke-width:1.0;" x1="296.5" x2="302.5" y1="386.18" y2="394.18"/><line style="stroke:#181818;stroke-width:1.0;" x1="296.5" x2="290.5" y1="386.18" y2="394.18"/><line style="stroke:#181818;stroke-width:1.0;" x1="296.5" x2="296.5" y1="386.18" y2="394.18"/><line style="stroke:#181818;stroke-width:1.0;" x1="300.5" x2="292.5" y1="384.18" y2="384.18"/></g><!--link Movie to Publisher--><g id="link_Movie_Publisher"><path codeLine="83" d="M239.2817,806.1199 C229.2617,826.5099 226.1774,832.7896 217.1874,851.0896 " fill="none" id="Movie-Publisher" style="stroke:#181818;stroke-width:1.0;stroke-dasharray:7.0,7.0;"/><line style="stroke:#181818;stroke-width:1.0;" x1="237.4559" x2="244.6358" y1="800.7658" y2="804.2941"/><line style="stroke:#181818;stroke-width:1.0;" x1="236.1328" x2="243.3127" y1="803.4582" y2="806.9866"/><line style="stroke:#181818;stroke-width:1.0;" x1="239.2817" x2="242.81" y1="806.1199" y2="798.94"/><line style="stroke:#181818;stroke-width:1.0;" x1="217.1874" x2="219.0453" y1="851.0896" y2="860.9155"/><line style="stroke:#181818;stroke-width:1.0;" x1="217.1874" x2="208.2747" y1="851.0896" y2="855.6245"/><line style="stroke:#181818;stroke-width:1.0;" x1="217.1874" x2="213.66" y1="851.0896" y2="858.27"/><line style="stroke:#181818;stroke-width:1.0;" x1="221.6594" x2="214.4791" y1="851.0583" y2="847.5309"/></g><!--link Movie to Artist--><g id="link_Movie_Artist"><path codeLine="84" d="M353.7183,806.1199 C363.7383,826.5099 366.8226,832.7896 375.8126,851.0896 " fill="none" id="Movie-Artist" style="stroke:#181818;stroke-width:1.0;stroke-dasharray:7.0,7.0;"/><line style="stroke:#181818;stroke-width:1.0;" x1="348.3642" x2="355.5441" y1="804.2941" y2="800.7658"/><line style="stroke:#181818;stroke-width:1.0;" x1="349.6873" x2="356.8672" y1="806.9866" y2="803.4582"/><line style="stroke:#181818;stroke-width:1.0;" x1="353.7183" x2="350.19" y1="806.1199" y2="798.94"/><line style="stroke:#181818;stroke-width:1.0;" x1="375.8126" x2="384.7253" y1="851.0896" y2="855.6245"/><line style="stroke:#181818;stroke-width:1.0;" x1="375.8126" x2="373.9547" y1="851.0896" y2="860.9155"/><line style="stroke:#181818;stroke-width:1.0;" x1="375.8126" x2="379.34" y1="851.0896" y2="858.27"/><line style="stroke:#181818;stroke-width:1.0;" x1="378.5209" x2="371.3406" y1="847.5309" y2="851.0583"/></g><!--SRC=[hLJBRi8m4BpxAomkbNBW0og4r1UNgXAYwZboo2fOJMngEo04_VVQ6vFO8K6jQ6uxkyxCZjSBmd1pe9CF3Mf2ZuJQBw59KjiuvJczfzeeBWewcorVv_CamGgN5Qo2DetebcczbogFKQWOBplecn3md2jPGiUfRDGmSc6W0EKfc_I58Ay4JyLIGWROWQWXR4mrq7Xlt42LNZQNCGtfLl6rmqLTPQ0GDzAmCePoPY1bww-QAt0iBWvKUL5F5YsaEWneM_lKkCYnFXPDIKVs9dSS0ehAnR_vxuY6HLSxC01rLdAzwKqEflH6xWt70sW7EgrJ1xkQUvf9UvDCNFLwq5XCr8ePBaLNtZcmF8iAN1WMsdDYoAfU-r7t1s1gWFz16QvDGCuGk94vDhu0aTi61vx0exrEnOfm138F_SyK_EckWaSWPHLElWrlS0GVOQg1cLY4GrAsimk8PIKCJSUxEzFfm0FNVBdKkGZp8rlAJhgTxqyq8Xfq15FdJM3H7NrPFTirKU9CwmtV4hUUwUaqdPwErArDufT8YyKxXVHtZ2_3RJ2MF8yAmRk9JZJq4X7d647RMZso8isUyKZxv6AuUGda1m00]--></g></svg>