<?xml version="1.0" encoding="us-ascii" standalone="no"?><svg xmlns="http://www.w3.org/2000/svg" xmlns:xlink="http://www.w3.org/1999/xlink" contentStyleType="text/css" height="790px" preserveAspectRatio="none" style="width:514px;height:790px;background:#FFFFFF;" version="1.1" viewBox="0 0 514 790" width="514px" zoomAndPan="magnify"><defs/><g><!--class User--><g id="elem_User"><rect codeLine="1" fill="#F1F1F1" height="100.8281" id="User" rx="2.5" ry="2.5" style="stroke:#181818;stroke-width:0.5;" width="123" x="94.5" y="33.5"/><ellipse cx="137.4" cy="49.5" fill="#ADD1B2" rx="11" ry="11" style="stroke:#181818;stroke-width:1.0;"/><path d="M136.2594,50.2969 L136.2594,52.7969 L140.5875,52.7969 L140.5875,51.875 Q140.5875,51.2656 140.8219,51 Q141.0719,50.7344 141.4469,50.7344 Q141.8219,50.7344 142.0563,51 Q142.2906,51.2656 142.2906,51.875 L142.2906,54.5 L134.2906,54.5 Q133.6656,54.5 133.4,54.2656 Q133.15,54.0313 133.15,53.6406 Q133.15,53.2656 133.4156,53.0313 Q133.6813,52.7969 134.2906,52.7969 L134.5563,52.7969 L134.5563,46.1406 L134.2906,46.1406 Q133.6656,46.1406 133.4,45.9063 Q133.15,45.6719 133.15,45.2813 Q133.15,44.9063 133.4,44.6719 Q133.6656,44.4375 134.2906,44.4375 L141.9156,44.4375 L141.9156,47.0313 Q141.9156,47.6406 141.6813,47.9063 Q141.4625,48.1563 141.0719,48.1563 Q140.6969,48.1563 140.4625,47.9063 Q140.2281,47.6406 140.2281,47.0313 L140.2281,46.1406 L136.2594,46.1406 L136.2594,48.5938 L137.7438,48.5938 Q137.7438,47.9375 137.8688,47.75 Q138.1344,47.3438 138.6031,47.3438 Q138.9781,47.3438 139.2125,47.6094 Q139.4469,47.8594 139.4469,48.4688 L139.4469,50.4375 Q139.4469,50.9844 139.3219,51.1719 Q139.0563,51.5625 138.6031,51.5625 Q138.1344,51.5625 137.8688,51.1563 Q137.7438,50.9688 137.7438,50.2969 L136.2594,50.2969 Z " fill="#000000"/><text fill="#000000" font-family="sans-serif" font-size="14" lengthAdjust="spacing" textLength="29" x="157.6" y="55.2285">User</text><line style="stroke:#181818;stroke-width:0.5;" x1="95.5" x2="216.5" y1="65.5" y2="65.5"/><text fill="#000000" font-family="sans-serif" font-size="14" lengthAdjust="spacing" textLength="90" x="100.5" y="84.0332">user_id: string</text><text fill="#000000" font-family="sans-serif" font-size="14" lengthAdjust="spacing" textLength="78" x="100.5" y="101.6426">name: string</text><text fill="#000000" font-family="sans-serif" font-size="14" lengthAdjust="spacing" textLength="111" x="100.5" y="119.252">address: Address</text><line style="stroke:#181818;stroke-width:0.5;" x1="95.5" x2="216.5" y1="126.3281" y2="126.3281"/></g><!--class Role--><g id="elem_Role"><rect codeLine="7" fill="#F1F1F1" height="100.8281" id="Role" rx="2.5" ry="2.5" style="stroke:#181818;stroke-width:0.5;" width="120" x="7" y="256"/><ellipse cx="48.55" cy="272" fill="#ADD1B2" rx="11" ry="11" style="stroke:#181818;stroke-width:1.0;"/><path d="M47.4094,272.7969 L47.4094,275.2969 L51.7375,275.2969 L51.7375,274.375 Q51.7375,273.7656 51.9719,273.5 Q52.2219,273.2344 52.5969,273.2344 Q52.9719,273.2344 53.2063,273.5 Q53.4406,273.7656 53.4406,274.375 L53.4406,277 L45.4406,277 Q44.8156,277 44.55,276.7656 Q44.3,276.5313 44.3,276.1406 Q44.3,275.7656 44.5656,275.5313 Q44.8313,275.2969 45.4406,275.2969 L45.7063,275.2969 L45.7063,268.6406 L45.4406,268.6406 Q44.8156,268.6406 44.55,268.4063 Q44.3,268.1719 44.3,267.7813 Q44.3,267.4063 44.55,267.1719 Q44.8156,266.9375 45.4406,266.9375 L53.0656,266.9375 L53.0656,269.5313 Q53.0656,270.1406 52.8313,270.4063 Q52.6125,270.6563 52.2219,270.6563 Q51.8469,270.6563 51.6125,270.4063 Q51.3781,270.1406 51.3781,269.5313 L51.3781,268.6406 L47.4094,268.6406 L47.4094,271.0938 L48.8938,271.0938 Q48.8938,270.4375 49.0188,270.25 Q49.2844,269.8438 49.7531,269.8438 Q50.1281,269.8438 50.3625,270.1094 Q50.5969,270.3594 50.5969,270.9688 L50.5969,272.9375 Q50.5969,273.4844 50.4719,273.6719 Q50.2063,274.0625 49.7531,274.0625 Q49.2844,274.0625 49.0188,273.6563 Q48.8938,273.4688 48.8938,272.7969 L47.4094,272.7969 Z " fill="#000000"/><text fill="#000000" font-family="sans-serif" font-size="14" lengthAdjust="spacing" textLength="29" x="68.45" y="277.7285">Role</text><line style="stroke:#181818;stroke-width:0.5;" x1="8" x2="126" y1="288" y2="288"/><text fill="#000000" font-family="sans-serif" font-size="14" lengthAdjust="spacing" textLength="86" x="13" y="306.5332">role_id: string</text><text fill="#000000" font-family="sans-serif" font-size="14" lengthAdjust="spacing" textLength="108" x="13" y="324.1426">name: RoleEnum</text><text fill="#000000" font-family="sans-serif" font-size="14" lengthAdjust="spacing" textLength="90" x="13" y="341.752">user_id: string</text><line style="stroke:#181818;stroke-width:0.5;" x1="8" x2="126" y1="348.8281" y2="348.8281"/></g><!--class Movie--><g id="elem_Movie"><rect codeLine="13" fill="#F1F1F1" height="171.2656" id="Movie" rx="2.5" ry="2.5" style="stroke:#181818;stroke-width:0.5;" width="158" x="77" y="452"/><ellipse cx="133.25" cy="468" fill="#ADD1B2" rx="11" ry="11" style="stroke:#181818;stroke-width:1.0;"/><path d="M132.1094,468.7969 L132.1094,471.2969 L136.4375,471.2969 L136.4375,470.375 Q136.4375,469.7656 136.6719,469.5 Q136.9219,469.2344 137.2969,469.2344 Q137.6719,469.2344 137.9063,469.5 Q138.1406,469.7656 138.1406,470.375 L138.1406,473 L130.1406,473 Q129.5156,473 129.25,472.7656 Q129,472.5313 129,472.1406 Q129,471.7656 129.2656,471.5313 Q129.5313,471.2969 130.1406,471.2969 L130.4063,471.2969 L130.4063,464.6406 L130.1406,464.6406 Q129.5156,464.6406 129.25,464.4063 Q129,464.1719 129,463.7813 Q129,463.4063 129.25,463.1719 Q129.5156,462.9375 130.1406,462.9375 L137.7656,462.9375 L137.7656,465.5313 Q137.7656,466.1406 137.5313,466.4063 Q137.3125,466.6563 136.9219,466.6563 Q136.5469,466.6563 136.3125,466.4063 Q136.0781,466.1406 136.0781,465.5313 L136.0781,464.6406 L132.1094,464.6406 L132.1094,467.0938 L133.5938,467.0938 Q133.5938,466.4375 133.7188,466.25 Q133.9844,465.8438 134.4531,465.8438 Q134.8281,465.8438 135.0625,466.1094 Q135.2969,466.3594 135.2969,466.9688 L135.2969,468.9375 Q135.2969,469.4844 135.1719,469.6719 Q134.9063,470.0625 134.4531,470.0625 Q133.9844,470.0625 133.7188,469.6563 Q133.5938,469.4688 133.5938,468.7969 L132.1094,468.7969 Z " fill="#000000"/><text fill="#000000" font-family="sans-serif" font-size="14" lengthAdjust="spacing" textLength="37" x="153.75" y="473.7285">Movie</text><line style="stroke:#181818;stroke-width:0.5;" x1="78" x2="234" y1="484" y2="484"/><text fill="#000000" font-family="sans-serif" font-size="14" lengthAdjust="spacing" textLength="99" x="83" y="502.5332">movie_id: string</text><text fill="#000000" font-family="sans-serif" font-size="14" lengthAdjust="spacing" textLength="65" x="83" y="520.1426">title: string</text><text fill="#000000" font-family="sans-serif" font-size="14" lengthAdjust="spacing" textLength="112" x="83" y="537.752">description: string</text><text fill="#000000" font-family="sans-serif" font-size="14" lengthAdjust="spacing" textLength="133" x="83" y="555.3613">durationInMs: integer</text><text fill="#000000" font-family="sans-serif" font-size="14" lengthAdjust="spacing" textLength="146" x="83" y="572.9707">releaseDate: DateTime</text><text fill="#000000" font-family="sans-serif" font-size="14" lengthAdjust="spacing" textLength="90" x="83" y="590.5801">country: string</text><text fill="#000000" font-family="sans-serif" font-size="14" lengthAdjust="spacing" textLength="129" x="83" y="608.1895">poster_image: string</text><line style="stroke:#181818;stroke-width:0.5;" x1="78" x2="234" y1="615.2656" y2="615.2656"/></g><!--class Genre--><g id="elem_Genre"><rect codeLine="24" fill="#F1F1F1" height="100.8281" id="Genre" rx="2.5" ry="2.5" style="stroke:#181818;stroke-width:0.5;" width="111" x="18.5" y="683"/><ellipse cx="51.05" cy="699" fill="#ADD1B2" rx="11" ry="11" style="stroke:#181818;stroke-width:1.0;"/><path d="M49.9094,699.7969 L49.9094,702.2969 L54.2375,702.2969 L54.2375,701.375 Q54.2375,700.7656 54.4719,700.5 Q54.7219,700.2344 55.0969,700.2344 Q55.4719,700.2344 55.7063,700.5 Q55.9406,700.7656 55.9406,701.375 L55.9406,704 L47.9406,704 Q47.3156,704 47.05,703.7656 Q46.8,703.5313 46.8,703.1406 Q46.8,702.7656 47.0656,702.5313 Q47.3313,702.2969 47.9406,702.2969 L48.2063,702.2969 L48.2063,695.6406 L47.9406,695.6406 Q47.3156,695.6406 47.05,695.4063 Q46.8,695.1719 46.8,694.7813 Q46.8,694.4063 47.05,694.1719 Q47.3156,693.9375 47.9406,693.9375 L55.5656,693.9375 L55.5656,696.5313 Q55.5656,697.1406 55.3313,697.4063 Q55.1125,697.6563 54.7219,697.6563 Q54.3469,697.6563 54.1125,697.4063 Q53.8781,697.1406 53.8781,696.5313 L53.8781,695.6406 L49.9094,695.6406 L49.9094,698.0938 L51.3938,698.0938 Q51.3938,697.4375 51.5188,697.25 Q51.7844,696.8438 52.2531,696.8438 Q52.6281,696.8438 52.8625,697.1094 Q53.0969,697.3594 53.0969,697.9688 L53.0969,699.9375 Q53.0969,700.4844 52.9719,700.6719 Q52.7063,701.0625 52.2531,701.0625 Q51.7844,701.0625 51.5188,700.6563 Q51.3938,700.4688 51.3938,699.7969 L49.9094,699.7969 Z " fill="#000000"/><text fill="#000000" font-family="sans-serif" font-size="14" lengthAdjust="spacing" textLength="40" x="68.95" y="704.7285">Genre</text><line style="stroke:#181818;stroke-width:0.5;" x1="19.5" x2="128.5" y1="715" y2="715"/><text fill="#000000" font-family="sans-serif" font-size="14" lengthAdjust="spacing" textLength="99" x="24.5" y="733.5332">genre_id: string</text><text fill="#000000" font-family="sans-serif" font-size="14" lengthAdjust="spacing" textLength="78" x="24.5" y="751.1426">name: string</text><text fill="#000000" font-family="sans-serif" font-size="14" lengthAdjust="spacing" textLength="99" x="24.5" y="768.752">movie_id: string</text><line style="stroke:#181818;stroke-width:0.5;" x1="19.5" x2="128.5" y1="775.8281" y2="775.8281"/></g><!--class Booking--><g id="elem_Booking"><rect codeLine="30" fill="#F1F1F1" height="171.2656" id="Booking" rx="2.5" ry="2.5" style="stroke:#181818;stroke-width:0.5;" width="165" x="162.5" y="221"/><ellipse cx="215.25" cy="237" fill="#ADD1B2" rx="11" ry="11" style="stroke:#181818;stroke-width:1.0;"/><path d="M214.1094,237.7969 L214.1094,240.2969 L218.4375,240.2969 L218.4375,239.375 Q218.4375,238.7656 218.6719,238.5 Q218.9219,238.2344 219.2969,238.2344 Q219.6719,238.2344 219.9063,238.5 Q220.1406,238.7656 220.1406,239.375 L220.1406,242 L212.1406,242 Q211.5156,242 211.25,241.7656 Q211,241.5313 211,241.1406 Q211,240.7656 211.2656,240.5313 Q211.5313,240.2969 212.1406,240.2969 L212.4063,240.2969 L212.4063,233.6406 L212.1406,233.6406 Q211.5156,233.6406 211.25,233.4063 Q211,233.1719 211,232.7813 Q211,232.4063 211.25,232.1719 Q211.5156,231.9375 212.1406,231.9375 L219.7656,231.9375 L219.7656,234.5313 Q219.7656,235.1406 219.5313,235.4063 Q219.3125,235.6563 218.9219,235.6563 Q218.5469,235.6563 218.3125,235.4063 Q218.0781,235.1406 218.0781,234.5313 L218.0781,233.6406 L214.1094,233.6406 L214.1094,236.0938 L215.5938,236.0938 Q215.5938,235.4375 215.7188,235.25 Q215.9844,234.8438 216.4531,234.8438 Q216.8281,234.8438 217.0625,235.1094 Q217.2969,235.3594 217.2969,235.9688 L217.2969,237.9375 Q217.2969,238.4844 217.1719,238.6719 Q216.9063,239.0625 216.4531,239.0625 Q215.9844,239.0625 215.7188,238.6563 Q215.5938,238.4688 215.5938,237.7969 L214.1094,237.7969 Z " fill="#000000"/><text fill="#000000" font-family="sans-serif" font-size="14" lengthAdjust="spacing" textLength="51" x="235.75" y="242.7285">Booking</text><line style="stroke:#181818;stroke-width:0.5;" x1="163.5" x2="326.5" y1="253" y2="253"/><text fill="#000000" font-family="sans-serif" font-size="14" lengthAdjust="spacing" textLength="112" x="168.5" y="271.5332">booking_id: string</text><text fill="#000000" font-family="sans-serif" font-size="14" lengthAdjust="spacing" textLength="153" x="168.5" y="289.1426">created_date: DateTime</text><text fill="#000000" font-family="sans-serif" font-size="14" lengthAdjust="spacing" textLength="137" x="168.5" y="306.752">status: BookingStatus</text><text fill="#000000" font-family="sans-serif" font-size="14" lengthAdjust="spacing" textLength="83" x="168.5" y="324.3613">price: integer</text><text fill="#000000" font-family="sans-serif" font-size="14" lengthAdjust="spacing" textLength="90" x="168.5" y="341.9707">user_id: string</text><text fill="#000000" font-family="sans-serif" font-size="14" lengthAdjust="spacing" textLength="99" x="168.5" y="359.5801">movie_id: string</text><text fill="#000000" font-family="sans-serif" font-size="14" lengthAdjust="spacing" textLength="89" x="168.5" y="377.1895">seat_id: string</text><line style="stroke:#181818;stroke-width:0.5;" x1="163.5" x2="326.5" y1="384.2656" y2="384.2656"/></g><!--class Seats--><g id="elem_Seats"><rect codeLine="40" fill="#F1F1F1" height="83.2188" id="Seats" rx="2.5" ry="2.5" style="stroke:#181818;stroke-width:0.5;" width="127" x="270.5" y="496"/><ellipse cx="312.05" cy="512" fill="#ADD1B2" rx="11" ry="11" style="stroke:#181818;stroke-width:1.0;"/><path d="M310.9094,512.7969 L310.9094,515.2969 L315.2375,515.2969 L315.2375,514.375 Q315.2375,513.7656 315.4719,513.5 Q315.7219,513.2344 316.0969,513.2344 Q316.4719,513.2344 316.7063,513.5 Q316.9406,513.7656 316.9406,514.375 L316.9406,517 L308.9406,517 Q308.3156,517 308.05,516.7656 Q307.8,516.5313 307.8,516.1406 Q307.8,515.7656 308.0656,515.5313 Q308.3313,515.2969 308.9406,515.2969 L309.2063,515.2969 L309.2063,508.6406 L308.9406,508.6406 Q308.3156,508.6406 308.05,508.4063 Q307.8,508.1719 307.8,507.7813 Q307.8,507.4063 308.05,507.1719 Q308.3156,506.9375 308.9406,506.9375 L316.5656,506.9375 L316.5656,509.5313 Q316.5656,510.1406 316.3313,510.4063 Q316.1125,510.6563 315.7219,510.6563 Q315.3469,510.6563 315.1125,510.4063 Q314.8781,510.1406 314.8781,509.5313 L314.8781,508.6406 L310.9094,508.6406 L310.9094,511.0938 L312.3938,511.0938 Q312.3938,510.4375 312.5188,510.25 Q312.7844,509.8438 313.2531,509.8438 Q313.6281,509.8438 313.8625,510.1094 Q314.0969,510.3594 314.0969,510.9688 L314.0969,512.9375 Q314.0969,513.4844 313.9719,513.6719 Q313.7063,514.0625 313.2531,514.0625 Q312.7844,514.0625 312.5188,513.6563 Q312.3938,513.4688 312.3938,512.7969 L310.9094,512.7969 Z " fill="#000000"/><text fill="#000000" font-family="sans-serif" font-size="14" lengthAdjust="spacing" textLength="36" x="331.95" y="517.7285">Seats</text><line style="stroke:#181818;stroke-width:0.5;" x1="271.5" x2="396.5" y1="528" y2="528"/><text fill="#000000" font-family="sans-serif" font-size="14" lengthAdjust="spacing" textLength="89" x="276.5" y="546.5332">seat_id: string</text><text fill="#000000" font-family="sans-serif" font-size="14" lengthAdjust="spacing" textLength="115" x="276.5" y="564.1426">available: boolean</text><line style="stroke:#181818;stroke-width:0.5;" x1="271.5" x2="396.5" y1="571.2188" y2="571.2188"/></g><!--class Showtimes--><g id="elem_Showtimes"><rect codeLine="45" fill="#F1F1F1" height="100.8281" id="Showtimes" rx="2.5" ry="2.5" style="stroke:#181818;stroke-width:0.5;" width="149" x="164.5" y="683"/><ellipse cx="202" cy="699" fill="#ADD1B2" rx="11" ry="11" style="stroke:#181818;stroke-width:1.0;"/><path d="M200.8594,699.7969 L200.8594,702.2969 L205.1875,702.2969 L205.1875,701.375 Q205.1875,700.7656 205.4219,700.5 Q205.6719,700.2344 206.0469,700.2344 Q206.4219,700.2344 206.6563,700.5 Q206.8906,700.7656 206.8906,701.375 L206.8906,704 L198.8906,704 Q198.2656,704 198,703.7656 Q197.75,703.5313 197.75,703.1406 Q197.75,702.7656 198.0156,702.5313 Q198.2813,702.2969 198.8906,702.2969 L199.1563,702.2969 L199.1563,695.6406 L198.8906,695.6406 Q198.2656,695.6406 198,695.4063 Q197.75,695.1719 197.75,694.7813 Q197.75,694.4063 198,694.1719 Q198.2656,693.9375 198.8906,693.9375 L206.5156,693.9375 L206.5156,696.5313 Q206.5156,697.1406 206.2813,697.4063 Q206.0625,697.6563 205.6719,697.6563 Q205.2969,697.6563 205.0625,697.4063 Q204.8281,697.1406 204.8281,696.5313 L204.8281,695.6406 L200.8594,695.6406 L200.8594,698.0938 L202.3438,698.0938 Q202.3438,697.4375 202.4688,697.25 Q202.7344,696.8438 203.2031,696.8438 Q203.5781,696.8438 203.8125,697.1094 Q204.0469,697.3594 204.0469,697.9688 L204.0469,699.9375 Q204.0469,700.4844 203.9219,700.6719 Q203.6563,701.0625 203.2031,701.0625 Q202.7344,701.0625 202.4688,700.6563 Q202.3438,700.4688 202.3438,699.7969 L200.8594,699.7969 Z " fill="#000000"/><text fill="#000000" font-family="sans-serif" font-size="14" lengthAdjust="spacing" textLength="67" x="221" y="704.7285">Showtimes</text><line style="stroke:#181818;stroke-width:0.5;" x1="165.5" x2="312.5" y1="715" y2="715"/><text fill="#000000" font-family="sans-serif" font-size="14" lengthAdjust="spacing" textLength="120" x="170.5" y="733.5332">showtime_id: string</text><text fill="#000000" font-family="sans-serif" font-size="14" lengthAdjust="spacing" textLength="137" x="170.5" y="751.1426">show_date: DateTime</text><text fill="#000000" font-family="sans-serif" font-size="14" lengthAdjust="spacing" textLength="99" x="170.5" y="768.752">movie_id: string</text><line style="stroke:#181818;stroke-width:0.5;" x1="165.5" x2="312.5" y1="775.8281" y2="775.8281"/></g><!--class BookingStatus--><g id="elem_BookingStatus"><rect codeLine="51" fill="#F1F1F1" height="153.6563" id="BookingStatus" rx="2.5" ry="2.5" style="stroke:#181818;stroke-width:0.5;" width="123" x="252.5" y="7"/><ellipse cx="267.5" cy="23" fill="#EB937F" rx="11" ry="11" style="stroke:#181818;stroke-width:1.0;"/><path d="M266.3594,23.7969 L266.3594,26.2969 L270.6875,26.2969 L270.6875,25.375 Q270.6875,24.7656 270.9219,24.5 Q271.1719,24.2344 271.5469,24.2344 Q271.9219,24.2344 272.1563,24.5 Q272.3906,24.7656 272.3906,25.375 L272.3906,28 L264.3906,28 Q263.7656,28 263.5,27.7656 Q263.25,27.5313 263.25,27.1406 Q263.25,26.7656 263.5156,26.5313 Q263.7813,26.2969 264.3906,26.2969 L264.6563,26.2969 L264.6563,19.6406 L264.3906,19.6406 Q263.7656,19.6406 263.5,19.4063 Q263.25,19.1719 263.25,18.7813 Q263.25,18.4063 263.5,18.1719 Q263.7656,17.9375 264.3906,17.9375 L272.0156,17.9375 L272.0156,20.5313 Q272.0156,21.1406 271.7813,21.4063 Q271.5625,21.6563 271.1719,21.6563 Q270.7969,21.6563 270.5625,21.4063 Q270.3281,21.1406 270.3281,20.5313 L270.3281,19.6406 L266.3594,19.6406 L266.3594,22.0938 L267.8438,22.0938 Q267.8438,21.4375 267.9688,21.25 Q268.2344,20.8438 268.7031,20.8438 Q269.0781,20.8438 269.3125,21.1094 Q269.5469,21.3594 269.5469,21.9688 L269.5469,23.9375 Q269.5469,24.4844 269.4219,24.6719 Q269.1563,25.0625 268.7031,25.0625 Q268.2344,25.0625 267.9688,24.6563 Q267.8438,24.4688 267.8438,23.7969 L266.3594,23.7969 Z " fill="#000000"/><text fill="#000000" font-family="sans-serif" font-size="14" lengthAdjust="spacing" textLength="91" x="281.5" y="28.7285">BookingStatus</text><line style="stroke:#181818;stroke-width:0.5;" x1="253.5" x2="374.5" y1="39" y2="39"/><text fill="#000000" font-family="sans-serif" font-size="14" lengthAdjust="spacing" textLength="85" x="258.5" y="57.5332">REQUESTED</text><text fill="#000000" font-family="sans-serif" font-size="14" lengthAdjust="spacing" textLength="60" x="258.5" y="75.1426">PENDING</text><text fill="#000000" font-family="sans-serif" font-size="14" lengthAdjust="spacing" textLength="82" x="258.5" y="92.752">CONFIRMED</text><text fill="#000000" font-family="sans-serif" font-size="14" lengthAdjust="spacing" textLength="86" x="258.5" y="110.3613">CHECKED_IN</text><text fill="#000000" font-family="sans-serif" font-size="14" lengthAdjust="spacing" textLength="74" x="258.5" y="127.9707">CANCELED</text><text fill="#000000" font-family="sans-serif" font-size="14" lengthAdjust="spacing" textLength="85" x="258.5" y="145.5801">ABANDONED</text><line style="stroke:#181818;stroke-width:0.5;" x1="253.5" x2="374.5" y1="152.6563" y2="152.6563"/></g><!--class RoleEnum--><g id="elem_RoleEnum"><rect codeLine="59" fill="#F1F1F1" height="83.2188" id="RoleEnum" rx="2.5" ry="2.5" style="stroke:#181818;stroke-width:0.5;" width="97" x="410.5" y="42.5"/><ellipse cx="425.5" cy="58.5" fill="#EB937F" rx="11" ry="11" style="stroke:#181818;stroke-width:1.0;"/><path d="M424.3594,59.2969 L424.3594,61.7969 L428.6875,61.7969 L428.6875,60.875 Q428.6875,60.2656 428.9219,60 Q429.1719,59.7344 429.5469,59.7344 Q429.9219,59.7344 430.1563,60 Q430.3906,60.2656 430.3906,60.875 L430.3906,63.5 L422.3906,63.5 Q421.7656,63.5 421.5,63.2656 Q421.25,63.0313 421.25,62.6406 Q421.25,62.2656 421.5156,62.0313 Q421.7813,61.7969 422.3906,61.7969 L422.6563,61.7969 L422.6563,55.1406 L422.3906,55.1406 Q421.7656,55.1406 421.5,54.9063 Q421.25,54.6719 421.25,54.2813 Q421.25,53.9063 421.5,53.6719 Q421.7656,53.4375 422.3906,53.4375 L430.0156,53.4375 L430.0156,56.0313 Q430.0156,56.6406 429.7813,56.9063 Q429.5625,57.1563 429.1719,57.1563 Q428.7969,57.1563 428.5625,56.9063 Q428.3281,56.6406 428.3281,56.0313 L428.3281,55.1406 L424.3594,55.1406 L424.3594,57.5938 L425.8438,57.5938 Q425.8438,56.9375 425.9688,56.75 Q426.2344,56.3438 426.7031,56.3438 Q427.0781,56.3438 427.3125,56.6094 Q427.5469,56.8594 427.5469,57.4688 L427.5469,59.4375 Q427.5469,59.9844 427.4219,60.1719 Q427.1563,60.5625 426.7031,60.5625 Q426.2344,60.5625 425.9688,60.1563 Q425.8438,59.9688 425.8438,59.2969 L424.3594,59.2969 Z " fill="#000000"/><text fill="#000000" font-family="sans-serif" font-size="14" lengthAdjust="spacing" textLength="65" x="439.5" y="64.2285">RoleEnum</text><line style="stroke:#181818;stroke-width:0.5;" x1="411.5" x2="506.5" y1="74.5" y2="74.5"/><text fill="#000000" font-family="sans-serif" font-size="14" lengthAdjust="spacing" textLength="37" x="416.5" y="93.0332">USER</text><text fill="#000000" font-family="sans-serif" font-size="14" lengthAdjust="spacing" textLength="42" x="416.5" y="110.6426">ADMIN</text><line style="stroke:#181818;stroke-width:0.5;" x1="411.5" x2="506.5" y1="117.7188" y2="117.7188"/></g><!--link Movie to Genre--><g id="link_Movie_Genre"><path codeLine="64" d="M117.1557,630.3989 C108.5257,650.8189 105.8042,657.251 98.1042,675.471 " fill="none" id="Movie-Genre" style="stroke:#181818;stroke-width:1.0;"/><line style="stroke:#181818;stroke-width:1.0;" x1="115.0284" x2="122.3973" y1="625.1573" y2="628.2716"/><line style="stroke:#181818;stroke-width:1.0;" x1="113.8605" x2="121.2295" y1="627.9207" y2="631.035"/><line style="stroke:#181818;stroke-width:1.0;" x1="117.1557" x2="120.27" y1="630.3989" y2="623.03"/><line style="stroke:#181818;stroke-width:1.0;" x1="98.1042" x2="100.5167" y1="675.471" y2="685.1757"/><line style="stroke:#181818;stroke-width:1.0;" x1="98.1042" x2="89.4633" y1="675.471" y2="680.5043"/><line style="stroke:#181818;stroke-width:1.0;" x1="98.1042" x2="94.99" y1="675.471" y2="682.84"/><line style="stroke:#181818;stroke-width:1.0;" x1="102.5673" x2="95.1983" y1="675.1859" y2="672.0717"/></g><!--link Movie to Showtimes--><g id="link_Movie_Showtimes"><path codeLine="65" d="M195.3079,630.3846 C204.0479,650.8046 206.815,657.2641 214.605,675.4841 " fill="none" id="Movie-Showtimes" style="stroke:#181818;stroke-width:1.0;"/><line style="stroke:#181818;stroke-width:1.0;" x1="190.0566" x2="197.4113" y1="628.2813" y2="625.1334"/><line style="stroke:#181818;stroke-width:1.0;" x1="191.2371" x2="198.5917" y1="631.0393" y2="627.8914"/><line style="stroke:#181818;stroke-width:1.0;" x1="195.3079" x2="192.16" y1="630.3846" y2="623.03"/><line style="stroke:#181818;stroke-width:1.0;" x1="214.605" x2="223.2669" y1="675.4841" y2="680.4812"/><line style="stroke:#181818;stroke-width:1.0;" x1="214.605" x2="212.2331" y1="675.4841" y2="685.1988"/><line style="stroke:#181818;stroke-width:1.0;" x1="214.605" x2="217.75" y1="675.4841" y2="682.84"/><line style="stroke:#181818;stroke-width:1.0;" x1="217.4967" x2="210.1408" y1="672.0727" y2="675.2177"/></g><!--link User to Booking--><g id="link_User_Booking"><path codeLine="66" d="M179.0763,142.1777 C189.3363,167.5777 196.106,184.3514 207.846,213.4414 " fill="none" id="User-Booking" style="stroke:#181818;stroke-width:1.0;"/><line style="stroke:#181818;stroke-width:1.0;" x1="173.8693" x2="181.287" y1="139.967" y2="136.9707"/><line style="stroke:#181818;stroke-width:1.0;" x1="174.9929" x2="182.4106" y1="142.7486" y2="139.7523"/><line style="stroke:#181818;stroke-width:1.0;" x1="179.0763" x2="176.08" y1="142.1777" y2="134.76"/><line style="stroke:#181818;stroke-width:1.0;" x1="213.0523" x2="205.6337" y1="215.6537" y2="218.6477"/><line style="stroke:#181818;stroke-width:1.0;" x1="211.9296" x2="204.511" y1="212.8717" y2="215.8657"/><line style="stroke:#181818;stroke-width:1.0;" x1="207.846" x2="210.84" y1="213.4414" y2="220.86"/></g><!--link User to Role--><g id="link_User_Role"><path codeLine="67" d="M132.9242,142.1779 C118.3042,178.3779 104.6052,212.3418 90.0052,248.5018 " fill="none" id="User-Role" style="stroke:#181818;stroke-width:1.0;"/><line style="stroke:#181818;stroke-width:1.0;" x1="130.7131" x2="138.131" y1="136.971" y2="139.9669"/><line style="stroke:#181818;stroke-width:1.0;" x1="129.5897" x2="137.0076" y1="139.7527" y2="142.7486"/><line style="stroke:#181818;stroke-width:1.0;" x1="132.9242" x2="135.92" y1="142.1779" y2="134.76"/><line style="stroke:#181818;stroke-width:1.0;" x1="90.0052" x2="92.5736" y1="248.5018" y2="258.1664"/><line style="stroke:#181818;stroke-width:1.0;" x1="90.0052" x2="81.4464" y1="248.5018" y2="253.6736"/><line style="stroke:#181818;stroke-width:1.0;" x1="90.0052" x2="87.01" y1="248.5018" y2="255.92"/><line style="stroke:#181818;stroke-width:1.0;" x1="94.463" x2="87.0449" y1="248.1449" y2="245.1497"/></g><!--link Booking to Seats--><g id="link_Booking_Seats"><path codeLine="68" d="M280.7869,399.5771 C294.5469,434.9971 304.1111,459.6037 315.2811,488.3337 " fill="none" id="Booking-Seats" style="stroke:#181818;stroke-width:1.0;"/><line style="stroke:#181818;stroke-width:1.0;" x1="275.6099" x2="283.067" y1="397.297" y2="394.4001"/><line style="stroke:#181818;stroke-width:1.0;" x1="276.6963" x2="284.1533" y1="400.0934" y2="397.1965"/><line style="stroke:#181818;stroke-width:1.0;" x1="280.7869" x2="277.89" y1="399.5771" y2="392.12"/><line style="stroke:#181818;stroke-width:1.0;" x1="320.4587" x2="313.0024" y1="490.6124" y2="493.5113"/><line style="stroke:#181818;stroke-width:1.0;" x1="319.3716" x2="311.9153" y1="487.8163" y2="490.7152"/><line style="stroke:#181818;stroke-width:1.0;" x1="315.2811" x2="318.18" y1="488.3337" y2="495.79"/></g><!--link Booking to Movie--><g id="link_Booking_Movie"><path codeLine="69" d="M209.2136,399.5773 C201.6436,419.0673 199.3785,424.8935 191.7985,444.3935 " fill="none" id="Booking-Movie" style="stroke:#181818;stroke-width:1.0;"/><line style="stroke:#181818;stroke-width:1.0;" x1="206.9332" x2="214.3904" y1="394.4004" y2="397.2968"/><line style="stroke:#181818;stroke-width:1.0;" x1="205.847" x2="213.3043" y1="397.1969" y2="400.0933"/><line style="stroke:#181818;stroke-width:1.0;" x1="209.2136" x2="212.11" y1="399.5773" y2="392.12"/><line style="stroke:#181818;stroke-width:1.0;" x1="194.0775" x2="186.621" y1="449.571" y2="446.6725"/><line style="stroke:#181818;stroke-width:1.0;" x1="195.1644" x2="187.7079" y1="446.7748" y2="443.8764"/><line style="stroke:#181818;stroke-width:1.0;" x1="191.7985" x2="188.9" y1="444.3935" y2="451.85"/></g><!--SRC=[XLD1ReCm4Bpp2ZxG3-H6m4rH2saXEKSEhAXLi2FRf8f2_jx5DWaGf790k-FrxCoo0DTCN_oz0kbVFH-V5iC3ArU-qfBnoc2SDZ01Q5bAK6hb1pRmRfu7bYeJDJWgYU68oXznzLM4jyrYomTP8iviO6lwUAuCg-gfj19K8Tb9Cy6dU2jf3yOyGTsCQwX0MfbG0rKGKOrC_Nl76Z0dXMYvbfS9pqaetSjjQ0LZnOFa3N0vIAxw-DzXFXbx-5yByTDFpj8TRJOdB2IWwF9GFXjGckeMxJgUtAJMXcG5JEUmzEKNXwwmtxBU74-KKpklCdjpfgocn_wJeHaSEnzV_XQ_6fNV2Lp-r1xn9RFBSsoRgNj7df6lFSbt93BP9qcZEDsOEDocht6Mk9FmZOJl93h4gKs3D2GVxYnO1scqJJ6xsKR3LhiU-vnajZ1Ay3xAiVlSTIyltTLkoXIwZy0pVwH1kq7_2BkQLjwm7gxEJ7yE6dxF-mC0]--></g></svg>